{
  "asset": {
    "version": "2.0",
    "generator": "THREE.GLTFExporter"
  },
  "scenes": [
    {
      "name": "AuxScene",
      "nodes": [
        3
      ]
    }
  ],
  "scene": 0,
  "nodes": [
    {
      "name": "object_0",
      "mesh": 0
    },
    {
      "name": "object_1",
      "mesh": 1
    },
    {
      "name": "object_2",
      "mesh": 2
    },
    {
      "children": [
        0,
        1,
        2
      ]
    }
  ],
  "bufferViews": [
    {
      "buffer": 0,
      "byteOffset": 0,
      "byteLength": 18432,
      "target": 34962,
      "byteStride": 12
    },
    {
      "buffer": 0,
      "byteOffset": 18432,
      "byteLength": 18432,
      "target": 34962,
      "byteStride": 12
    },
    {
      "buffer": 0,
      "byteOffset": 36864,
      "byteLength": 12288,
      "target": 34962,
      "byteStride": 8
    },
    {
      "buffer": 0,
      "byteOffset": 49152,
      "byteLength": 278856,
      "target": 34962,
      "byteStride": 12
    },
    {
      "buffer": 0,
      "byteOffset": 328008,
      "byteLength": 278856,
      "target": 34962,
      "byteStride": 12
    },
    {
      "buffer": 0,
      "byteOffset": 606864,
      "byteLength": 185904,
      "target": 34962,
      "byteStride": 8
    },
    {
      "buffer": 0,
      "byteOffset": 792768,
      "byteLength": 66528,
      "target": 34962,
      "byteStride": 12
    },
    {
      "buffer": 0,
      "byteOffset": 859296,
      "byteLength": 66528,
      "target": 34962,
      "byteStride": 12
    },
    {
      "buffer": 0,
      "byteOffset": 925824,
      "byteLength": 44352,
      "target": 34962,
      "byteStride": 8
    }
  ],
  "buffers": [
    {
      "byteLength": 970176,
      "uri": "data:application/octet-stream;base64,"
    }
  ],
  "accessors": [
    {
      "bufferView": 0,
      "componentType": 5126,
      "count": 1536,
      "max": [
        17.341474533081055,
        217.93601989746094,
        17.34153938293457
      ],
      "min": [
        -17.34105110168457,
        0.00012192899885121733,
        -17.340986251831055
      ],
      "type": "VEC3"
    },
    {
      "bufferView": 1,
      "componentType": 5126,
      "count": 1536,
      "max": [
        0.9999979734420776,
        1,
        0.9999979734420776
      ],
      "min": [
        -0.9999979734420776,
        -1,
        -0.9999979734420776
      ],
      "type": "VEC3"
    },
    {
      "bufferView": 2,
      "componentType": 5126,
      "count": 1536,
      "max": [
        0.8675119876861572,
        0.668267011642456
      ],
      "min": [
        0.0041970000602304935,
        0.2417760044336319
      ],
      "type": "VEC2"
    },
    {
      "bufferView": 3,
      "componentType": 5126,
      "count": 23238,
      "max": [
        16.775178909301758,
        368.0343322753906,
        16.80004119873047
      ],
      "min": [
        -16.774951934814453,
        217.83399963378906,
        -16.799570083618164
      ],
      "type": "VEC3"
    },
    {
      "bufferView": 4,
      "componentType": 5126,
      "count": 23238,
      "max": [
        0.9999979734420776,
        1,
        0.9999979734420776
      ],
      "min": [
        -0.9999979734420776,
        -1,
        -0.9999979734420776
      ],
      "type": "VEC3"
    },
    {
      "bufferView": 5,
      "componentType": 5126,
      "count": 23238,
      "max": [
        0.9044370055198669,
        0.9965469837188721
      ],
      "min": [
        0.008217999711632729,
        0.005969000048935413
      ],
      "type": "VEC2"
    },
    {
      "bufferView": 6,
      "componentType": 5126,
      "count": 5544,
      "max": [
        7.865437030792236,
        366.44512939453125,
        7.877030372619629
      ],
      "min": [
        -7.865082263946533,
        249.05799865722656,
        -7.876589775085449
      ],
      "type": "VEC3"
    },
    {
      "bufferView": 7,
      "componentType": 5126,
      "count": 5544,
      "max": [
        0.9999979734420776,
        1,
        0.9999979734420776
      ],
      "min": [
        -0.9999979734420776,
        -1,
        -0.9999979734420776
      ],
      "type": "VEC3"
    },
    {
      "bufferView": 8,
      "componentType": 5126,
      "count": 5544,
      "max": [
        0.9948959946632385,
        0.9951649904251099
      ],
      "min": [
        0.0094200000166893,
        0.009099000133574009
      ],
      "type": "VEC2"
    }
  ],
  "materials": [
    {
      "pbrMetallicRoughness": {
        "metallicFactor": 0.5,
        "roughnessFactor": 0.5
      },
      "name": "object_0"
    },
    {
      "pbrMetallicRoughness": {
        "metallicFactor": 0.5,
        "roughnessFactor": 0.5
      },
      "name": "object_1"
    },
    {
      "pbrMetallicRoughness": {
        "metallicFactor": 0.5,
        "roughnessFactor": 0.5
      },
      "name": "object_2"
    }
  ],
  "meshes": [
    {
      "primitives": [
        {
          "mode": 4,
          "attributes": {
            "POSITION": 0,
            "NORMAL": 1,
            "TEXCOORD_0": 2
          },
          "material": 0
        }
      ]
    },
    {
      "primitives": [
        {
          "mode": 4,
          "attributes": {
            "POSITION": 3,
            "NORMAL": 4,
            "TEXCOORD_0": 5
          },
          "material": 1
        }
      ]
    },
    {
      "primitives": [
        {
          "mode": 4,
          "attributes": {
            "POSITION": 6,
            "NORMAL": 7,
            "TEXCOORD_0": 8
          },
          "material": 2
        }
      ]
    }
  ]
}